# xmcd
#
# Track frame offsets: 
#        150
#        17103
#        31059
#        47962
#        61971
#        76763
#        91220
#        105944
#        118238
#        133871
#        150090
#        166534
#        182976
#        193513
#        210709
#        226634
#        239904
#        256499
#        272244
#        289303
#
# Disc length: 4064 seconds
#
# Revision: 0
# Processed by: cddbd v1.5.1PL0 Copyright (c) Steve Scherf et al.
# Submitted via: ExactAudioCopy v0.95a4
#
DISCID=0d0fde14
DTITLE=Various Artist - Звездный коктейль ч.3
DYEAR=2004
DGENRE=Pop
TTITLE0=Дубцова - Роман
TTITLE1=Руки вверч - Нелюбимая
TTITLE2=SMS - Все пройдет
TTITLE3=Корни - С днем рождения, Вика
TTITLE4=Бутусов - Девушка по городу
TTITLE5=Билык&Сердючка - Ты на север, я на юг
TTITLE6=Гости из будущего - Все решено
TTITLE7=HI-FI - Билет
TTITLE8=Земфира - Небомореоблака
TTITLE9=Стас Пьеха - Одна звезда
TTITLE10=Кадышева&Зацепин - Широка река
TTITLE11=Губин - Лишь для тебя
TTITLE12=Орбакайте - Губки бантиком
TTITLE13=Жасмин - Капля лета
TTITLE14=Валерия - Отпусти меня
TTITLE15=Уматурман - Просковья
TTITLE16=Иванушки Int - Никуда без любви
TTITLE17=Reflex - Non stop
TTITLE18=Фабрика - Рыбка
TTITLE19=Ночные снайперы - Асфальт
EXTD=
EXTT0=
EXTT1=
EXTT2=
EXTT3=
EXTT4=
EXTT5=
EXTT6=
EXTT7=
EXTT8=
EXTT9=
EXTT10=
EXTT11=
EXTT12=
EXTT13=
EXTT14=
EXTT15=
EXTT16=
EXTT17=
EXTT18=
EXTT19=
PLAYORDER=
